<mxfile host="65bd71144e">
    <diagram id="JnSn8dl_iS-6wtLNGZJg" name="Page-1">
        <mxGraphModel dx="1179" dy="681" grid="1" gridSize="10" guides="1" tooltips="1" connect="1" arrows="1" fold="1" page="1" pageScale="1" pageWidth="827" pageHeight="1169" math="0" shadow="0">
            <root>
                <mxCell id="0"/>
                <mxCell id="1" parent="0"/>
                <mxCell id="9" value="" style="rounded=1;whiteSpace=wrap;html=1;" vertex="1" parent="1">
                    <mxGeometry x="24" y="85" width="770" height="390" as="geometry"/>
                </mxCell>
                <mxCell id="5" value="AT91RM9200" style="rounded=1;whiteSpace=wrap;html=1;" vertex="1" parent="1">
                    <mxGeometry x="249" y="265" width="290" height="60" as="geometry"/>
                </mxCell>
                <mxCell id="2" value="SJA1000-A" style="rounded=1;whiteSpace=wrap;html=1;" vertex="1" parent="1">
                    <mxGeometry x="34" y="365" width="120" height="60" as="geometry"/>
                </mxCell>
                <mxCell id="4" value="SJA1000-B" style="rounded=1;whiteSpace=wrap;html=1;" vertex="1" parent="1">
                    <mxGeometry x="174" y="365" width="120" height="60" as="geometry"/>
                </mxCell>
                <mxCell id="6" value="SJA1000-D" style="rounded=1;whiteSpace=wrap;html=1;" vertex="1" parent="1">
                    <mxGeometry x="454" y="365" width="120" height="60" as="geometry"/>
                </mxCell>
                <mxCell id="7" value="SJA1000-C" style="rounded=1;whiteSpace=wrap;html=1;" vertex="1" parent="1">
                    <mxGeometry x="314" y="365" width="120" height="60" as="geometry"/>
                </mxCell>
                <mxCell id="8" value="CANAlyst-II" style="rounded=1;whiteSpace=wrap;html=1;" vertex="1" parent="1">
                    <mxGeometry x="249" y="535" width="130" height="60" as="geometry"/>
                </mxCell>
                <mxCell id="12" value="DIN41612F48" style="rounded=0;whiteSpace=wrap;html=1;" vertex="1" parent="1">
                    <mxGeometry x="229" y="465" width="170" height="30" as="geometry"/>
                </mxCell>
                <mxCell id="13" value="" style="endArrow=classic;startArrow=classic;html=1;fontColor=#FFFFFF;entryX=0.5;entryY=1;entryDx=0;entryDy=0;exitX=0;exitY=0;exitDx=0;exitDy=0;" edge="1" parent="1" source="12" target="2">
                    <mxGeometry width="50" height="50" relative="1" as="geometry">
                        <mxPoint x="74" y="495" as="sourcePoint"/>
                        <mxPoint x="124" y="445" as="targetPoint"/>
                    </mxGeometry>
                </mxCell>
                <mxCell id="14" value="" style="endArrow=classic;startArrow=classic;html=1;fontColor=#FFFFFF;entryX=0.5;entryY=1;entryDx=0;entryDy=0;exitX=0.25;exitY=0;exitDx=0;exitDy=0;" edge="1" parent="1" source="12" target="4">
                    <mxGeometry width="50" height="50" relative="1" as="geometry">
                        <mxPoint x="124" y="545" as="sourcePoint"/>
                        <mxPoint x="174" y="495" as="targetPoint"/>
                    </mxGeometry>
                </mxCell>
                <mxCell id="15" value="" style="endArrow=classic;startArrow=classic;html=1;fontColor=#FFFFFF;entryX=0.5;entryY=1;entryDx=0;entryDy=0;exitX=0.75;exitY=0;exitDx=0;exitDy=0;" edge="1" parent="1" source="12" target="7">
                    <mxGeometry width="50" height="50" relative="1" as="geometry">
                        <mxPoint x="454" y="595" as="sourcePoint"/>
                        <mxPoint x="504" y="545" as="targetPoint"/>
                    </mxGeometry>
                </mxCell>
                <mxCell id="16" value="" style="endArrow=classic;startArrow=classic;html=1;fontColor=#FFFFFF;entryX=0.5;entryY=1;entryDx=0;entryDy=0;exitX=0.933;exitY=0.007;exitDx=0;exitDy=0;exitPerimeter=0;" edge="1" parent="1" source="12" target="6">
                    <mxGeometry width="50" height="50" relative="1" as="geometry">
                        <mxPoint x="444" y="645" as="sourcePoint"/>
                        <mxPoint x="494" y="595" as="targetPoint"/>
                    </mxGeometry>
                </mxCell>
                <mxCell id="18" value="" style="endArrow=classic;startArrow=classic;html=1;fontColor=#FFFFFF;exitX=0.5;exitY=0;exitDx=0;exitDy=0;entryX=0.5;entryY=1;entryDx=0;entryDy=0;" edge="1" parent="1" source="8" target="12">
                    <mxGeometry width="50" height="50" relative="1" as="geometry">
                        <mxPoint x="274" y="545" as="sourcePoint"/>
                        <mxPoint x="324" y="495" as="targetPoint"/>
                    </mxGeometry>
                </mxCell>
                <mxCell id="19" value="" style="rounded=1;whiteSpace=wrap;html=1;fontColor=#FFFFFF;" vertex="1" parent="1">
                    <mxGeometry x="24" y="685" width="780" height="295" as="geometry"/>
                </mxCell>
                <mxCell id="20" value="USB" style="rounded=0;whiteSpace=wrap;html=1;fontColor=#FFFFFF;" vertex="1" parent="1">
                    <mxGeometry x="254" y="665" width="120" height="30" as="geometry"/>
                </mxCell>
                <mxCell id="22" value="" style="endArrow=classic;startArrow=classic;html=1;fontColor=#FFFFFF;entryX=0.5;entryY=1;entryDx=0;entryDy=0;exitX=0.5;exitY=0;exitDx=0;exitDy=0;" edge="1" parent="1" source="20" target="8">
                    <mxGeometry width="50" height="50" relative="1" as="geometry">
                        <mxPoint x="284" y="665" as="sourcePoint"/>
                        <mxPoint x="334" y="615" as="targetPoint"/>
                    </mxGeometry>
                </mxCell>
                <mxCell id="23" value="FPGA" style="rounded=1;whiteSpace=wrap;html=1;fontColor=#FFFFFF;" vertex="1" parent="1">
                    <mxGeometry x="130" y="265" width="84" height="40" as="geometry"/>
                </mxCell>
                <mxCell id="24" value="NOR Flash" style="rounded=1;whiteSpace=wrap;html=1;fontColor=#FFFFFF;" vertex="1" parent="1">
                    <mxGeometry x="600" y="265" width="110" height="30" as="geometry"/>
                </mxCell>
                <mxCell id="25" value="RAM" style="rounded=1;whiteSpace=wrap;html=1;fontColor=#FFFFFF;" vertex="1" parent="1">
                    <mxGeometry x="600" y="320" width="110" height="30" as="geometry"/>
                </mxCell>
                <mxCell id="29" value="ETHx2" style="rounded=1;whiteSpace=wrap;html=1;fontColor=#FFFFFF;" vertex="1" parent="1">
                    <mxGeometry x="730" y="265" width="36" height="155" as="geometry"/>
                </mxCell>
                <mxCell id="35" value="" style="endArrow=classic;startArrow=classic;html=1;fontColor=#FFFFFF;entryX=0;entryY=1;entryDx=0;entryDy=0;exitX=0.25;exitY=0;exitDx=0;exitDy=0;" edge="1" parent="1" source="2" target="5">
                    <mxGeometry width="50" height="50" relative="1" as="geometry">
                        <mxPoint x="80" y="380" as="sourcePoint"/>
                        <mxPoint x="130" y="330" as="targetPoint"/>
                    </mxGeometry>
                </mxCell>
                <mxCell id="36" value="" style="endArrow=classic;startArrow=classic;html=1;fontColor=#FFFFFF;exitX=0.5;exitY=0;exitDx=0;exitDy=0;" edge="1" parent="1" source="4" target="5">
                    <mxGeometry width="50" height="50" relative="1" as="geometry">
                        <mxPoint x="110" y="590" as="sourcePoint"/>
                        <mxPoint x="160" y="540" as="targetPoint"/>
                    </mxGeometry>
                </mxCell>
                <mxCell id="37" value="" style="endArrow=classic;startArrow=classic;html=1;fontColor=#FFFFFF;entryX=0.444;entryY=0.986;entryDx=0;entryDy=0;entryPerimeter=0;exitX=0.75;exitY=0;exitDx=0;exitDy=0;" edge="1" parent="1" source="6" target="5">
                    <mxGeometry width="50" height="50" relative="1" as="geometry">
                        <mxPoint x="410" y="390" as="sourcePoint"/>
                        <mxPoint x="460" y="340" as="targetPoint"/>
                    </mxGeometry>
                </mxCell>
                <mxCell id="38" value="" style="endArrow=classic;startArrow=classic;html=1;fontColor=#FFFFFF;exitX=0.75;exitY=0;exitDx=0;exitDy=0;entryX=0.363;entryY=1.018;entryDx=0;entryDy=0;entryPerimeter=0;" edge="1" parent="1" source="7" target="5">
                    <mxGeometry width="50" height="50" relative="1" as="geometry">
                        <mxPoint x="380" y="410" as="sourcePoint"/>
                        <mxPoint x="380" y="330" as="targetPoint"/>
                    </mxGeometry>
                </mxCell>
                <mxCell id="41" value="" style="endArrow=classic;startArrow=classic;html=1;fontColor=#FFFFFF;entryX=1;entryY=0.75;entryDx=0;entryDy=0;exitX=0.5;exitY=0;exitDx=0;exitDy=0;" edge="1" parent="1" source="42" target="5">
                    <mxGeometry width="50" height="50" relative="1" as="geometry">
                        <mxPoint x="670" y="460" as="sourcePoint"/>
                        <mxPoint x="630" y="540" as="targetPoint"/>
                    </mxGeometry>
                </mxCell>
                <mxCell id="42" value="DEBUG_COM" style="rounded=0;whiteSpace=wrap;html=1;fontColor=#FFFFFF;" vertex="1" parent="1">
                    <mxGeometry x="600" y="460" width="120" height="30" as="geometry"/>
                </mxCell>
                <mxCell id="43" value="USB" style="rounded=0;whiteSpace=wrap;html=1;fontColor=#FFFFFF;" vertex="1" parent="1">
                    <mxGeometry x="600" y="665" width="120" height="30" as="geometry"/>
                </mxCell>
                <mxCell id="44" value="" style="endArrow=classic;startArrow=classic;html=1;fontColor=#FFFFFF;entryX=0.5;entryY=1;entryDx=0;entryDy=0;exitX=0.5;exitY=0;exitDx=0;exitDy=0;" edge="1" parent="1" source="47" target="42">
                    <mxGeometry width="50" height="50" relative="1" as="geometry">
                        <mxPoint x="660" y="660" as="sourcePoint"/>
                        <mxPoint x="690" y="590" as="targetPoint"/>
                    </mxGeometry>
                </mxCell>
                <mxCell id="47" value="&lt;div&gt;&lt;br&gt;&lt;/div&gt;&lt;div&gt;&lt;span style=&quot;background-color: initial;&quot;&gt;Silicon Labs CP210x USB to UART Bridge&lt;/span&gt;&lt;br&gt;&lt;/div&gt;&lt;div&gt;&lt;br&gt;&lt;/div&gt;" style="rounded=1;whiteSpace=wrap;html=1;fontColor=#FFFFFF;" vertex="1" parent="1">
                    <mxGeometry x="600" y="535" width="120" height="45" as="geometry"/>
                </mxCell>
                <mxCell id="49" value="" style="endArrow=classic;startArrow=classic;html=1;fontColor=#FFFFFF;entryX=0.5;entryY=1;entryDx=0;entryDy=0;" edge="1" parent="1" target="47">
                    <mxGeometry width="50" height="50" relative="1" as="geometry">
                        <mxPoint x="660" y="660" as="sourcePoint"/>
                        <mxPoint x="520" y="580" as="targetPoint"/>
                    </mxGeometry>
                </mxCell>
                <mxCell id="53" style="edgeStyle=none;html=1;exitX=-0.003;exitY=0.44;exitDx=0;exitDy=0;entryX=1.005;entryY=0.427;entryDx=0;entryDy=0;entryPerimeter=0;fontColor=#FFFFFF;exitPerimeter=0;" edge="1" parent="1" source="9" target="9">
                    <mxGeometry relative="1" as="geometry"/>
                </mxCell>
                <mxCell id="54" value="硬件" style="text;html=1;strokeColor=none;fillColor=none;align=center;verticalAlign=middle;whiteSpace=wrap;rounded=0;fontColor=#FFFFFF;" vertex="1" parent="1">
                    <mxGeometry x="24" y="260" width="60" height="30" as="geometry"/>
                </mxCell>
                <mxCell id="55" value="软件" style="text;html=1;strokeColor=none;fillColor=none;align=center;verticalAlign=middle;whiteSpace=wrap;rounded=0;fontColor=#FFFFFF;" vertex="1" parent="1">
                    <mxGeometry x="24" y="220" width="60" height="30" as="geometry"/>
                </mxCell>
                <mxCell id="56" value="" style="endArrow=none;dashed=1;html=1;dashPattern=1 3;strokeWidth=2;fontColor=#FFFFFF;exitX=0;exitY=0.25;exitDx=0;exitDy=0;entryX=1;entryY=0.25;entryDx=0;entryDy=0;" edge="1" parent="1" source="9" target="9">
                    <mxGeometry width="50" height="50" relative="1" as="geometry">
                        <mxPoint x="230" y="230" as="sourcePoint"/>
                        <mxPoint x="280" y="180" as="targetPoint"/>
                    </mxGeometry>
                </mxCell>
                <mxCell id="57" value="&lt;font style=&quot;font-size: 17px;&quot;&gt;Linux内核（子系统/驱动）&lt;/font&gt;" style="text;html=1;strokeColor=none;fillColor=none;align=center;verticalAlign=middle;whiteSpace=wrap;rounded=0;fontColor=#FFFFFF;" vertex="1" parent="1">
                    <mxGeometry x="274" y="200" width="256" height="50" as="geometry"/>
                </mxCell>
                <mxCell id="61" value="内核空间" style="text;html=1;strokeColor=none;fillColor=none;align=center;verticalAlign=middle;whiteSpace=wrap;rounded=0;fontColor=#FFFFFF;" vertex="1" parent="1">
                    <mxGeometry x="24" y="180" width="60" height="30" as="geometry"/>
                </mxCell>
                <mxCell id="62" value="用户空间" style="text;html=1;strokeColor=none;fillColor=none;align=center;verticalAlign=middle;whiteSpace=wrap;rounded=0;fontColor=#FFFFFF;" vertex="1" parent="1">
                    <mxGeometry x="24" y="150" width="60" height="30" as="geometry"/>
                </mxCell>
                <mxCell id="63" value="软件" style="text;html=1;strokeColor=none;fillColor=none;align=center;verticalAlign=middle;whiteSpace=wrap;rounded=0;fontColor=#FFFFFF;" vertex="1" parent="1">
                    <mxGeometry x="24" y="760" width="60" height="30" as="geometry"/>
                </mxCell>
                <mxCell id="64" value="硬件" style="text;html=1;strokeColor=none;fillColor=none;align=center;verticalAlign=middle;whiteSpace=wrap;rounded=0;fontColor=#FFFFFF;" vertex="1" parent="1">
                    <mxGeometry x="24" y="730" width="60" height="30" as="geometry"/>
                </mxCell>
                <mxCell id="65" value="应用" style="text;html=1;strokeColor=none;fillColor=none;align=center;verticalAlign=middle;whiteSpace=wrap;rounded=0;fontColor=#FFFFFF;" vertex="1" parent="1">
                    <mxGeometry x="24" y="840" width="60" height="30" as="geometry"/>
                </mxCell>
                <mxCell id="67" value="" style="endArrow=none;html=1;fontSize=19;fontColor=#FFFFFF;exitX=0;exitY=1;exitDx=0;exitDy=0;" edge="1" parent="1" source="64">
                    <mxGeometry width="50" height="50" relative="1" as="geometry">
                        <mxPoint x="140" y="820" as="sourcePoint"/>
                        <mxPoint x="800" y="760" as="targetPoint"/>
                    </mxGeometry>
                </mxCell>
                <mxCell id="68" value="" style="endArrow=none;dashed=1;html=1;dashPattern=1 3;strokeWidth=2;fontSize=19;fontColor=#FFFFFF;exitX=0;exitY=0.5;exitDx=0;exitDy=0;entryX=1;entryY=0.5;entryDx=0;entryDy=0;" edge="1" parent="1" source="19" target="19">
                    <mxGeometry width="50" height="50" relative="1" as="geometry">
                        <mxPoint x="280" y="880" as="sourcePoint"/>
                        <mxPoint x="330" y="830" as="targetPoint"/>
                    </mxGeometry>
                </mxCell>
                <mxCell id="69" value="系统" style="text;html=1;strokeColor=none;fillColor=none;align=center;verticalAlign=middle;whiteSpace=wrap;rounded=0;fontColor=#FFFFFF;" vertex="1" parent="1">
                    <mxGeometry x="24" y="810" width="60" height="30" as="geometry"/>
                </mxCell>
                <mxCell id="70" value="Windows&amp;nbsp;" style="text;html=1;strokeColor=none;fillColor=none;align=center;verticalAlign=middle;whiteSpace=wrap;rounded=0;fontSize=19;fontColor=#FFFFFF;" vertex="1" parent="1">
                    <mxGeometry x="304" y="770" width="256" height="60" as="geometry"/>
                </mxCell>
                <mxCell id="71" value="CANPRO协议分析平台" style="rounded=1;whiteSpace=wrap;html=1;fontSize=19;fontColor=#FFFFFF;" vertex="1" parent="1">
                    <mxGeometry x="84" y="890" width="120" height="60" as="geometry"/>
                </mxCell>
                <mxCell id="72" value="超级终端" style="rounded=1;whiteSpace=wrap;html=1;fontSize=19;fontColor=#FFFFFF;" vertex="1" parent="1">
                    <mxGeometry x="595" y="890" width="120" height="60" as="geometry"/>
                </mxCell>
                <mxCell id="75" value="" style="endArrow=none;dashed=1;html=1;fontSize=19;fontColor=#FFFFFF;entryX=0.5;entryY=1;entryDx=0;entryDy=0;" edge="1" parent="1" target="20">
                    <mxGeometry width="50" height="50" relative="1" as="geometry">
                        <mxPoint x="140" y="890" as="sourcePoint"/>
                        <mxPoint x="190" y="840" as="targetPoint"/>
                    </mxGeometry>
                </mxCell>
                <mxCell id="76" value="" style="endArrow=none;dashed=1;html=1;dashPattern=1 3;strokeWidth=2;fontSize=19;fontColor=#FFFFFF;entryX=0.5;entryY=1;entryDx=0;entryDy=0;" edge="1" parent="1" source="72" target="43">
                    <mxGeometry width="50" height="50" relative="1" as="geometry">
                        <mxPoint x="630" y="860" as="sourcePoint"/>
                        <mxPoint x="680" y="810" as="targetPoint"/>
                    </mxGeometry>
                </mxCell>
                <mxCell id="80" value="DEC Borad" style="text;html=1;strokeColor=none;fillColor=none;align=center;verticalAlign=middle;whiteSpace=wrap;rounded=0;fontSize=19;fontColor=#FFFFFF;" vertex="1" parent="1">
                    <mxGeometry x="14" y="55" width="116" height="30" as="geometry"/>
                </mxCell>
                <mxCell id="81" value="Windows PC" style="text;html=1;strokeColor=none;fillColor=none;align=center;verticalAlign=middle;whiteSpace=wrap;rounded=0;fontSize=19;fontColor=#FFFFFF;" vertex="1" parent="1">
                    <mxGeometry x="20" y="980" width="130" height="40" as="geometry"/>
                </mxCell>
                <mxCell id="84" value="ip" style="rounded=1;whiteSpace=wrap;html=1;fontSize=17;fontColor=#FFFFFF;" vertex="1" parent="1">
                    <mxGeometry x="174" y="130" width="66" height="30" as="geometry"/>
                </mxCell>
                <mxCell id="85" value="cansend" style="rounded=1;whiteSpace=wrap;html=1;fontSize=17;fontColor=#FFFFFF;" vertex="1" parent="1">
                    <mxGeometry x="269" y="130" width="90" height="30" as="geometry"/>
                </mxCell>
                <mxCell id="86" value="sh" style="rounded=1;whiteSpace=wrap;html=1;fontSize=17;fontColor=#FFFFFF;" vertex="1" parent="1">
                    <mxGeometry x="90" y="130" width="60" height="30" as="geometry"/>
                </mxCell>
                <mxCell id="87" value="canecho" style="rounded=1;whiteSpace=wrap;html=1;fontSize=17;fontColor=#FFFFFF;" vertex="1" parent="1">
                    <mxGeometry x="379" y="130" width="90" height="30" as="geometry"/>
                </mxCell>
                <mxCell id="88" value="candump" style="rounded=1;whiteSpace=wrap;html=1;fontSize=17;fontColor=#FFFFFF;" vertex="1" parent="1">
                    <mxGeometry x="496" y="130" width="99" height="30" as="geometry"/>
                </mxCell>
                <mxCell id="89" value="cansequece" style="rounded=1;whiteSpace=wrap;html=1;fontSize=17;fontColor=#FFFFFF;" vertex="1" parent="1">
                    <mxGeometry x="620" y="130" width="110" height="30" as="geometry"/>
                </mxCell>
                <mxCell id="91" value="DEC板子CAN通信硬件关系图示" style="text;html=1;strokeColor=none;fillColor=none;align=center;verticalAlign=middle;whiteSpace=wrap;rounded=0;fontSize=17;fontColor=#FFFFFF;" vertex="1" parent="1">
                    <mxGeometry x="240" y="1040" width="320" height="40" as="geometry"/>
                </mxCell>
            </root>
        </mxGraphModel>
    </diagram>
</mxfile>